<?xml version="1.0" encoding="utf-8"?>
<!-- Generator: Adobe Illustrator 23.0.1, SVG Export Plug-In . SVG Version: 6.00 Build 0)  -->
<svg version="1.1" id="Layer_1" xmlns="http://www.w3.org/2000/svg" xmlns:xlink="http://www.w3.org/1999/xlink" x="0px" y="0px"
	 viewBox="0 0 1573.99 347.06" style="enable-background:new 0 0 1573.99 347.06;" xml:space="preserve">
<style type="text/css">
	.st0{fill:#6D707C;}
	.st1{font-family:'Industry-Medium';}
	.st2{font-size:177.5948px;}
	.st3{letter-spacing:-5;}
	.st4{letter-spacing:1;}
	.st5{letter-spacing:-2;}
	.st6{letter-spacing:-3;}
	.st7{fill:url(#SVGID_1_);}
	.st8{fill:url(#SVGID_2_);}
	.st9{fill:none;stroke:#FFFFFF;stroke-width:13.0194;stroke-linecap:round;stroke-linejoin:round;stroke-miterlimit:10;}
	.st10{fill:none;stroke:#FFFFFF;stroke-width:10;stroke-linecap:round;stroke-linejoin:round;stroke-miterlimit:10;}
	.st11{fill:url(#XMLID_3_);}
</style>
<g>
	<text transform="matrix(1 0 0 1 459.2183 231.7306)"><tspan x="0" y="0" class="st0 st1 st2">C</tspan><tspan x="111.71" y="0" class="st0 st1 st2 st3">h</tspan><tspan x="207.43" y="0" class="st0 st1 st2 st4">r</tspan><tspan x="279.71" y="0" class="st0 st1 st2 st5">i</tspan><tspan x="321.26" y="0" class="st0 st1 st2">s </tspan><tspan x="455.88" y="0" class="st0 st1 st2">J</tspan><tspan x="557.28" y="0" class="st0 st1 st2 st6">a</tspan><tspan x="651.05" y="0" class="st0 st1 st2 st6">m</tspan><tspan x="801.29" y="0" class="st0 st1 st2">is</tspan><tspan x="937.15" y="0" class="st0 st1 st2 st5">o</tspan><tspan x="1033.41" y="0" class="st0 st1 st2">n</tspan></text>
	<g>
		<g>
			
				<linearGradient id="SVGID_1_" gradientUnits="userSpaceOnUse" x1="40.4254" y1="46.4979" x2="406.2641" y2="287.8741" gradientTransform="matrix(1 0 -0.0875 1 -6.8085 0)">
				<stop  offset="0.1931" style="stop-color:#F6895B"/>
				<stop  offset="0.7005" style="stop-color:#EC1A63"/>
			</linearGradient>
			<path class="st7" d="M36.34,347.06c1.44,0,267.91,0,267.91,0c45.26,0,48.62-42.08,48.62-42.08L400.01,0.02H89.97
				c0,0-42.12-2.1-48.97,42.64C40.67,44.79,0.42,305.2,0.42,305.2S-6.57,347.06,36.34,347.06z"/>
			
				<linearGradient id="SVGID_2_" gradientUnits="userSpaceOnUse" x1="393.8106" y1="327.9814" x2="215.8315" y2="6.6013" gradientTransform="matrix(1 0 -0.0875 1 -6.8085 0)">
				<stop  offset="0.0396" style="stop-color:#006FB9"/>
				<stop  offset="0.7921" style="stop-color:#00AFDE"/>
			</linearGradient>
			<path class="st8" d="M168.49,346.88c62.17,0,139.71,0,139.71,0c45.25,0,48.61-42.08,48.61-42.08L403.92-0.17H221.26
				L168.49,346.88z"/>
		</g>
		<line class="st9" x1="171.64" y1="346.5" x2="224.39" y2="0.21"/>
		<g>
			<polyline class="st10" points="143.94,99.5 67.62,175.82 144.1,252.3 			"/>
			<g>
				<polyline class="st10" points="251.26,99.5 327.58,175.82 251.1,252.3 				"/>
				<linearGradient id="XMLID_3_" gradientUnits="userSpaceOnUse" x1="273.667" y1="120.0788" x2="250.8662" y2="100.9467">
					<stop  offset="0" style="stop-color:#099CC8"/>
					<stop  offset="1" style="stop-color:#00A7D3"/>
				</linearGradient>
				<path id="XMLID_1_" class="st11" d="M248.14,104.19c7.17,7.87,15.44,0.32,8.27-7.54l19.92,20.25c-6.96-6.85-15.2,0.62-8.22,7.46
					L248.14,104.19z"/>
			</g>
		</g>
	</g>
</g>
</svg>
