<?xml version="1.0" encoding="utf-8"?>
<!-- Generator: Adobe Illustrator 23.0.1, SVG Export Plug-In . SVG Version: 6.00 Build 0)  -->
<svg version="1.1" id="Layer_1" xmlns="http://www.w3.org/2000/svg" xmlns:xlink="http://www.w3.org/1999/xlink" x="0px" y="0px"
	 viewBox="0 0 1574 347.1" style="enable-background:new 0 0 1574 347.1;" xml:space="preserve">
<style type="text/css">
	.st0{enable-background:new    ;}
	.st1{fill:#6D707C;}
	.st2{fill:url(#SVGID_1_);}
	.st3{fill:url(#SVGID_2_);}
	.st4{fill:none;stroke:#FFFFFF;stroke-width:13.0194;stroke-linecap:round;stroke-linejoin:round;stroke-miterlimit:10;}
	.st5{fill:none;stroke:#FFFFFF;stroke-width:10;stroke-linecap:round;stroke-linejoin:round;stroke-miterlimit:10;}
	.st6{fill:url(#XMLID_3_);}
</style>
<g class="st0">
	<path class="st1" d="M472.2,206.9v-74.6c0-16.9,8-24.9,24.9-24.9h38.4c16.9,0,24.9,8,24.9,24.9v15.8h-17v-15.3
		c0-7.1-2.7-9.8-9.8-9.8h-34.6c-6.9,0-9.6,2.7-9.6,9.8v73.5c0,7.1,2.7,9.8,9.6,9.8h34.6c7.1,0,9.8-2.7,9.8-9.8v-15.3h17v15.8
		c0,16.3-8,24.9-24.9,24.9H497C480.2,231.7,472.2,223.2,472.2,206.9z"/>
</g>
<g class="st0">
	<path class="st1" d="M584.1,102.1h16.2v47.1c8.3-8.3,15.5-14.2,32.5-14.2c19.4,0,27,7.6,27,24v72.8h-16.3v-72.3
		c0-7.1-2.5-9.8-12.3-9.8c-14.2,0-21.5,3.2-30.9,9.6v72.5h-16.2V102.1z"/>
</g>
<g class="st0">
	<path class="st1" d="M679.8,135.8H696V150c7.8-7.6,15.3-14.2,29.5-14.2h7.1v15.5H724c-11.4,0-19.4,4.1-28.1,9.4v71h-16.2V135.8z"/>
</g>
<g class="st0">
	<path class="st1" d="M751.9,104.4h17.9v18.1h-17.9V104.4z M752.8,135.8h16.2v95.9h-16.2V135.8z"/>
</g>
<g class="st0">
	<path class="st1" d="M789.2,205.6v-3.7H805v4.1c0,9.2,2.8,12.1,9.6,12.1H838c6.9,0,9.6-2.8,9.6-13.9c0-10.1-2.5-11.7-9.1-12.8
		l-27.4-4.4c-14.4-2.5-20.8-7.8-20.8-24c0-19.5,7.6-27.2,23.8-27.2h23.4c16.2,0,23.8,7.6,23.8,25v3.2h-15.8v-3.7
		c0-8-2.7-10.8-9.6-10.8h-19.9c-6.9,0-9.6,2.8-9.6,12.4c0,8.7,2.5,10.3,9.1,11.4l27.3,4.4c14.4,2.5,20.8,7.8,20.8,25.4
		c0,21-7.6,28.6-23.8,28.6h-27C796.8,231.7,789.2,224.1,789.2,205.6z"/>
</g>
<g class="st0">
	<path class="st1" d="M921.5,206.9v-22.6h17v22c0,7.1,2.7,9.8,9.6,9.8h26.8c7.1,0,9.8-2.7,9.8-9.8v-98.9h17v99.5
		c0,16.9-8,24.9-24.9,24.9h-30.5C929.5,231.7,921.5,223.7,921.5,206.9z"/>
</g>
<g class="st0">
	<path class="st1" d="M1025.7,204.4c0-20.1,8.3-26.1,24.3-27.9c8.5-0.9,21.3-2.1,35.7-2.7v-14.6c0-6.9-2.7-9.6-9.6-9.6h-21.5
		c-6.9,0-9.6,2.7-9.6,9.6v3.6h-16.2v-3.2c0-16.2,7.6-23.8,23.8-23.8h25.4c16.2,0,23.8,7.6,23.8,23.8v72.1h-16.2v-13.7
		c-7.5,9.2-15.5,14.4-32.9,14.4C1033.4,232.4,1025.7,224.3,1025.7,204.4z M1085.8,208.1v-23.6l-33.6,4.4
		c-7.5,1.1-10.3,3.2-10.3,14.6c0,11.5,2.7,14.9,12.8,14.9C1069.1,218.4,1076.3,214.5,1085.8,208.1z"/>
</g>
<g class="st0">
	<path class="st1" d="M1252,158.7v73h-16.2v-72.5c0-7.1-2.7-9.8-11-9.8c-12.1,0-19.7,3.4-28.9,9.4v72.8h-16.3v-72.5
		c0-7.1-2.7-9.8-10.8-9.8c-12.4,0-19.7,3.2-29.1,9.6v72.6h-16.2v-95.9h16.2V149c8.3-8.3,15.5-14.2,30.7-14.2
		c14.2,0,22,4.8,24.5,14.9c8.2-8.3,16.9-14.9,31.8-14.9C1244.4,134.8,1252,142.4,1252,158.7z"/>
</g>
<g class="st0">
	<path class="st1" d="M1273.5,104.4h17.9v18.1h-17.9V104.4z M1274.4,135.8h16.2v95.9h-16.2V135.8z"/>
	<path class="st1" d="M1313.1,205.6v-3.7h15.8v4.1c0,9.2,2.8,12.1,9.6,12.1h23.4c6.9,0,9.6-2.8,9.6-13.9c0-10.1-2.5-11.7-9.1-12.8
		l-27.3-4.4c-14.4-2.5-20.8-7.8-20.8-24c0-19.5,7.6-27.2,23.8-27.2h23.4c16.2,0,23.8,7.6,23.8,25v3.2h-15.8v-3.7
		c0-8-2.7-10.8-9.6-10.8h-19.9c-6.9,0-9.6,2.8-9.6,12.4c0,8.7,2.5,10.3,9.1,11.4l27.3,4.4c14.4,2.5,20.8,7.8,20.8,25.4
		c0,21-7.6,28.6-23.8,28.6h-27C1320.7,231.7,1313.1,224.1,1313.1,205.6z"/>
</g>
<g class="st0">
	<path class="st1" d="M1407.4,207.9v-48.3c0-16.2,7.6-23.8,23.8-23.8h29.1c16.2,0,23.8,7.6,23.8,23.8v48.3
		c0,16.2-7.6,23.8-23.8,23.8h-29.1C1415,231.7,1407.4,224.1,1407.4,207.9z M1458.2,217.3c6.9,0,9.6-2.8,9.6-9.6v-48
		c0-6.7-2.7-9.6-9.6-9.6h-25c-6.7,0-9.6,2.8-9.6,9.6v48c0,6.7,2.8,9.6,9.6,9.6H1458.2z"/>
</g>
<g class="st0">
	<path class="st1" d="M1505.8,135.8h16.2v13.3c8.3-8.3,15.5-14.2,32.5-14.2c19.4,0,27,7.6,27,24v72.8h-16.3v-72.3
		c0-7.1-2.5-9.8-12.3-9.8c-14.2,0-21.5,3.2-30.9,9.6v72.5h-16.2V135.8z"/>
</g>
<g>
	<g>
		
			<linearGradient id="SVGID_1_" gradientUnits="userSpaceOnUse" x1="46.117" y1="303.5003" x2="411.9519" y2="62.1266" gradientTransform="matrix(1 0 8.750000e-02 -1 -43.121 350)">
			<stop  offset="0.1931" style="stop-color:#F6895B"/>
			<stop  offset="0.7005" style="stop-color:#EC1A63"/>
		</linearGradient>
		<path class="st2" d="M36.3,347.1c1.4,0,267.9,0,267.9,0c45.3,0,48.6-42.1,48.6-42.1L400,0H90c0,0-42.1-2.1-49,42.6
			C40.7,44.8,0.4,305.2,0.4,305.2S-6.6,347.1,36.3,347.1z"/>
		
			<linearGradient id="SVGID_2_" gradientUnits="userSpaceOnUse" x1="399.5038" y1="22.0136" x2="221.5201" y2="343.4021" gradientTransform="matrix(1 0 8.750000e-02 -1 -43.121 350)">
			<stop  offset="3.960000e-02" style="stop-color:#006FB9"/>
			<stop  offset="0.7921" style="stop-color:#00AFDE"/>
		</linearGradient>
		<path class="st3" d="M168.5,346.9c62.2,0,139.7,0,139.7,0c45.3,0,48.6-42.1,48.6-42.1l47.1-305H221.3L168.5,346.9z"/>
	</g>
	<line class="st4" x1="171.6" y1="346.5" x2="224.4" y2="0.2"/>
	<g>
		<polyline class="st5" points="143.9,99.5 67.6,175.8 144.1,252.3 		"/>
		<g>
			<polyline class="st5" points="251.3,99.5 327.6,175.8 251.1,252.3 			"/>
			
				<linearGradient id="XMLID_3_" gradientUnits="userSpaceOnUse" x1="273.6656" y1="229.9246" x2="250.8645" y2="249.0569" gradientTransform="matrix(1 0 0 -1 0 350)">
				<stop  offset="0" style="stop-color:#099CC8"/>
				<stop  offset="1" style="stop-color:#00A7D3"/>
			</linearGradient>
			<path id="XMLID_1_" class="st6" d="M248.1,104.2c7.2,7.9,15.4,0.3,8.3-7.5l19.9,20.3c-7-6.8-15.2,0.6-8.2,7.5L248.1,104.2z"/>
		</g>
	</g>
</g>
</svg>
